<?xml version="1.0" encoding="UTF-8" standalone="no"?>
<!DOCTYPE svg PUBLIC "-//W3C//DTD SVG 1.1//EN"
 "http://www.w3.org/Graphics/SVG/1.1/DTD/svg11.dtd">
<!-- Generated by graphviz version 9.0.0 (0)
 -->
<!-- Pages: 1 -->
<svg width="1159pt" height="332pt"
 viewBox="0.00 0.00 1158.62 332.00" xmlns="http://www.w3.org/2000/svg" xmlns:xlink="http://www.w3.org/1999/xlink">
<g id="graph0" class="graph" transform="scale(1 1) rotate(0) translate(4 328)">
<polygon fill="white" stroke="none" points="-4,4 -4,-328 1154.62,-328 1154.62,4 -4,4"/>
<!-- [root] local_file.file (expand) -->
<g id="node1" class="node">
<title>[root] local_file.file (expand)</title>
<polygon fill="none" stroke="black" points="464.77,-180 361.02,-180 361.02,-144 464.77,-144 464.77,-180"/>
<text text-anchor="middle" x="412.9" y="-157.32" font-family="Times,serif" font-size="14.00">local_file.file</text>
</g>
<!-- [root] provider[&quot;registry.terraform.io/hashicorp/local&quot;] -->
<g id="node2" class="node">
<title>[root] provider[&quot;registry.terraform.io/hashicorp/local&quot;]</title>
<polygon fill="none" stroke="black" points="355.9,-108 0,-90 355.9,-72 711.79,-90 355.9,-108"/>
<text text-anchor="middle" x="355.9" y="-85.33" font-family="Times,serif" font-size="14.00">provider[&quot;registry.terraform.io/hashicorp/local&quot;]</text>
</g>
<!-- [root] local_file.file (expand)&#45;&gt;[root] provider[&quot;registry.terraform.io/hashicorp/local&quot;] -->
<g id="edge1" class="edge">
<title>[root] local_file.file (expand)&#45;&gt;[root] provider[&quot;registry.terraform.io/hashicorp/local&quot;]</title>
<path fill="none" stroke="black" d="M398.81,-143.7C392.08,-135.44 383.9,-125.39 376.5,-116.3"/>
<polygon fill="black" stroke="black" points="379.41,-114.34 370.39,-108.8 373.99,-118.76 379.41,-114.34"/>
</g>
<!-- [root] random_pet.pet_name (expand) -->
<g id="node4" class="node">
<title>[root] random_pet.pet_name (expand)</title>
<polygon fill="none" stroke="black" points="904.02,-108 729.77,-108 729.77,-72 904.02,-72 904.02,-108"/>
<text text-anchor="middle" x="816.9" y="-85.33" font-family="Times,serif" font-size="14.00">random_pet.pet_name</text>
</g>
<!-- [root] local_file.file (expand)&#45;&gt;[root] random_pet.pet_name (expand) -->
<g id="edge2" class="edge">
<title>[root] local_file.file (expand)&#45;&gt;[root] random_pet.pet_name (expand)</title>
<path fill="none" stroke="black" d="M465.03,-146C468.02,-145.29 470.99,-144.61 473.9,-144 578.94,-121.8 609.43,-125.41 718.15,-108.4"/>
<polygon fill="black" stroke="black" points="718.46,-111.89 727.78,-106.87 717.36,-104.98 718.46,-111.89"/>
</g>
<!-- [root] provider[&quot;registry.terraform.io/hashicorp/random&quot;] -->
<g id="node3" class="node">
<title>[root] provider[&quot;registry.terraform.io/hashicorp/random&quot;]</title>
<polygon fill="none" stroke="black" points="594.9,-36 217.42,-18 594.9,0 972.37,-18 594.9,-36"/>
<text text-anchor="middle" x="594.9" y="-13.32" font-family="Times,serif" font-size="14.00">provider[&quot;registry.terraform.io/hashicorp/random&quot;]</text>
</g>
<!-- [root] random_pet.pet_name (expand)&#45;&gt;[root] provider[&quot;registry.terraform.io/hashicorp/random&quot;] -->
<g id="edge5" class="edge">
<title>[root] random_pet.pet_name (expand)&#45;&gt;[root] provider[&quot;registry.terraform.io/hashicorp/random&quot;]</title>
<path fill="none" stroke="black" d="M761.45,-71.52C728.68,-61.18 687.21,-48.11 653.84,-37.59"/>
<polygon fill="black" stroke="black" points="654.9,-34.25 644.31,-34.58 652.79,-40.93 654.9,-34.25"/>
</g>
<!-- [root] var.counted -->
<g id="node5" class="node">
<title>[root] var.counted</title>
<polygon fill="none" stroke="black" points="1083.52,-36 990.27,-36 990.27,0 1089.52,0 1089.52,-30 1083.52,-36"/>
<polyline fill="none" stroke="black" points="1083.52,-36 1083.52,-30"/>
<polyline fill="none" stroke="black" points="1089.52,-30 1083.52,-30"/>
<text text-anchor="middle" x="1039.9" y="-13.32" font-family="Times,serif" font-size="14.00">var.counted</text>
</g>
<!-- [root] random_pet.pet_name (expand)&#45;&gt;[root] var.counted -->
<g id="edge6" class="edge">
<title>[root] random_pet.pet_name (expand)&#45;&gt;[root] var.counted</title>
<path fill="none" stroke="black" d="M872.59,-71.52C904.93,-61.37 945.7,-48.57 978.9,-38.15"/>
<polygon fill="black" stroke="black" points="979.91,-41.5 988.4,-35.16 977.82,-34.82 979.91,-41.5"/>
</g>
<!-- [root] provider[&quot;registry.terraform.io/hashicorp/local&quot;] (close) -->
<g id="node6" class="node">
<title>[root] provider[&quot;registry.terraform.io/hashicorp/local&quot;] (close)</title>
<ellipse fill="none" stroke="black" cx="441.9" cy="-234" rx="318.47" ry="18"/>
<text text-anchor="middle" x="441.9" y="-229.32" font-family="Times,serif" font-size="14.00">[root] provider[&quot;registry.terraform.io/hashicorp/local&quot;] (close)</text>
</g>
<!-- [root] provider[&quot;registry.terraform.io/hashicorp/local&quot;] (close)&#45;&gt;[root] local_file.file (expand) -->
<g id="edge3" class="edge">
<title>[root] provider[&quot;registry.terraform.io/hashicorp/local&quot;] (close)&#45;&gt;[root] local_file.file (expand)</title>
<path fill="none" stroke="black" d="M434.73,-215.7C431.6,-208.15 427.86,-199.12 424.36,-190.68"/>
<polygon fill="black" stroke="black" points="427.62,-189.4 420.56,-181.5 421.15,-192.08 427.62,-189.4"/>
</g>
<!-- [root] provider[&quot;registry.terraform.io/hashicorp/random&quot;] (close) -->
<g id="node7" class="node">
<title>[root] provider[&quot;registry.terraform.io/hashicorp/random&quot;] (close)</title>
<ellipse fill="none" stroke="black" cx="816.9" cy="-162" rx="333.73" ry="18"/>
<text text-anchor="middle" x="816.9" y="-157.32" font-family="Times,serif" font-size="14.00">[root] provider[&quot;registry.terraform.io/hashicorp/random&quot;] (close)</text>
</g>
<!-- [root] provider[&quot;registry.terraform.io/hashicorp/random&quot;] (close)&#45;&gt;[root] random_pet.pet_name (expand) -->
<g id="edge4" class="edge">
<title>[root] provider[&quot;registry.terraform.io/hashicorp/random&quot;] (close)&#45;&gt;[root] random_pet.pet_name (expand)</title>
<path fill="none" stroke="black" d="M816.9,-143.7C816.9,-136.41 816.9,-127.73 816.9,-119.54"/>
<polygon fill="black" stroke="black" points="820.4,-119.62 816.9,-109.62 813.4,-119.62 820.4,-119.62"/>
</g>
<!-- [root] root -->
<g id="node8" class="node">
<title>[root] root</title>
<ellipse fill="none" stroke="black" cx="614.9" cy="-306" rx="62.78" ry="18"/>
<text text-anchor="middle" x="614.9" y="-301.32" font-family="Times,serif" font-size="14.00">[root] root</text>
</g>
<!-- [root] root&#45;&gt;[root] provider[&quot;registry.terraform.io/hashicorp/local&quot;] (close) -->
<g id="edge7" class="edge">
<title>[root] root&#45;&gt;[root] provider[&quot;registry.terraform.io/hashicorp/local&quot;] (close)</title>
<path fill="none" stroke="black" d="M579.89,-290.83C555.57,-280.99 522.71,-267.7 495.16,-256.55"/>
<polygon fill="black" stroke="black" points="496.49,-253.31 485.91,-252.81 493.86,-259.8 496.49,-253.31"/>
</g>
<!-- [root] root&#45;&gt;[root] provider[&quot;registry.terraform.io/hashicorp/random&quot;] (close) -->
<g id="edge8" class="edge">
<title>[root] root&#45;&gt;[root] provider[&quot;registry.terraform.io/hashicorp/random&quot;] (close)</title>
<path fill="none" stroke="black" d="M668.99,-296.58C700.99,-289.29 740.66,-275.97 768.9,-252 787.8,-235.95 800.46,-210.51 808.01,-190.93"/>
<polygon fill="black" stroke="black" points="811.26,-192.22 811.36,-181.62 804.68,-189.85 811.26,-192.22"/>
</g>
</g>
</svg>
